# xmcd
#
# Track frame offsets:
#	150
#	11178
#	17240
#	41731
#	50444
#	63214
#	90010
#	101982
#	115878
#	127485
#
# Disc length: 1885
#
# Revision: 1
# Processed by: cddbd v1.5.1PL0 Copyright (c) Steve Scherf et al.
# Submitted via: EasyCDDAExtractor 5.0.4.1
# Normalized: r0:DSETVAR1
#
DISCID=87075b0a
DTITLE=Various Artist - Steel Blues
DYEAR=1998
DGENRE=Blues
TTITLE0=B.B. King - Catfish Blues
TTITLE1=Leadbelly - Big Fat Woman
TTITLE2=Lightnin' Hopkins - Walk A Long Time
TTITLE3=Billie Holiday - Please Don't Talk About Me When I'm Gone
TTITLE4=Dinah Washington - Wise Woman Blues
TTITLE5=John Mayall - Mexico City
TTITLE6=John Lee Hooker - Crawlin' King Snake
TTITLE7=Eddie "Clean Head" Vinson - Sugar
TTITLE8=Elmore James - Rollin' And Tumblin'
TTITLE9=Charles Brown - It's Gettin' To Be Evening
EXTD=shades of Blues\n
EXTT0=
EXTT1=
EXTT2=
EXTT3=
EXTT4=
EXTT5=
EXTT6=
EXTT7=
EXTT8=
EXTT9=
PLAYORDER=
